<?xml version="1.0" encoding="utf-8"?>
<!-- Generator: Adobe Illustrator 24.3.0, SVG Export Plug-In . SVG Version: 6.00 Build 0)  -->
<svg version="1.1" id="Layer_1" xmlns="http://www.w3.org/2000/svg" xmlns:xlink="http://www.w3.org/1999/xlink" x="0px" y="0px"
	 viewBox="0 0 24 24" style="enable-background:new 0 0 24 24;" xml:space="preserve">
<style type="text/css">
	.st0{fill:none;}
	.st1{fill:#010326;}
</style>
<path class="st0" d="M0,0h24v24H0V0z"/>
<path class="st1" d="M3.8,13.1C3.8,9.9,2,7-0.1,7s-4.1,2.6-4.1,5.8s1.8,6.1,4,6.1S3.8,16.5,3.8,13.1z M14.9,12.5
	c-0.2-3.2-2.4-5.5-4.5-5.3s-3.8,3.2-3.6,6.6c0.2,3.2,2.4,5.5,4.5,5.3S15.3,15.7,14.9,12.5z M17.8,13.1c0,3.2,1.8,6.1,4,6.1
	c2.2,0,4.1-2.6,4.1-5.8s-1.8-6.1-4-6.1C19.6,7,17.8,9.6,17.8,13.1z"/>
</svg>
