<?xml version="1.0" encoding="utf-8"?>
<!-- Generator: Adobe Illustrator 24.2.3, SVG Export Plug-In . SVG Version: 6.00 Build 0)  -->
<svg version="1.1" id="Layer_1" xmlns="http://www.w3.org/2000/svg" xmlns:xlink="http://www.w3.org/1999/xlink" x="0px" y="0px"
	 viewBox="0 0 24 24" style="enable-background:new 0 0 24 24;" xml:space="preserve">
<style type="text/css">
	.st0{fill:none;}
</style>
<path class="st0" d="M0,3h24v24H0V3z"/>
<path d="M18,16.9h-1.1l-0.4-0.4c1.3-1.6,2.1-3.6,2.1-5.8c0-5-3.9-9-8.7-9s-8.7,4-8.7,9s3.9,9,8.7,9c2.2,0,4.1-0.8,5.7-2.2l0.4,0.4
	V19l6.7,6.9l2-2.1L18,16.9z M10,15.9c-2.7,0-4.9-2.4-4.9-5.3S7.3,5.3,10,5.3s4.9,2.4,4.9,5.3S12.7,15.9,10,15.9z"/>
</svg>
